<mxfile host="Electron" modified="2024-03-22T10:22:33.310Z" agent="Mozilla/5.0 (Windows NT 10.0; Win64; x64) AppleWebKit/537.36 (KHTML, like Gecko) draw.io/23.1.5 Chrome/120.0.6099.109 Electron/28.1.0 Safari/537.36" etag="IQSQqxaNAXH9htUk87F-" version="23.1.5" type="device">
  <diagram id="_SzPEkcs4c-AnB0c7pbD" name="network">
    <mxGraphModel dx="1594" dy="804" grid="1" gridSize="10" guides="1" tooltips="1" connect="1" arrows="1" fold="1" page="1" pageScale="1" pageWidth="850" pageHeight="1100" math="0" shadow="0">
      <root>
        <mxCell id="0" />
        <mxCell id="1" parent="0" />
        <mxCell id="XGUd7avNZhf5QIV7N5Gn-69" value="ra2ce.network" style="shape=folder;fontStyle=1;spacingTop=10;tabWidth=40;tabHeight=14;tabPosition=left;html=1;whiteSpace=wrap;verticalAlign=top;align=center;" parent="1" vertex="1">
          <mxGeometry x="20.49" y="270" width="779.51" height="690" as="geometry" />
        </mxCell>
        <mxCell id="XGUd7avNZhf5QIV7N5Gn-1" value="Networks" style="swimlane;fontStyle=1;align=center;verticalAlign=top;childLayout=stackLayout;horizontal=1;startSize=26;horizontalStack=0;resizeParent=1;resizeParentMax=0;resizeLast=0;collapsible=1;marginBottom=0;whiteSpace=wrap;html=1;" parent="1" vertex="1">
          <mxGeometry x="290.24" y="860" width="180.01" height="52" as="geometry" />
        </mxCell>
        <mxCell id="XGUd7avNZhf5QIV7N5Gn-4" value="+ create(): GraphFilesCollection" style="text;strokeColor=none;fillColor=none;align=left;verticalAlign=top;spacingLeft=4;spacingRight=4;overflow=hidden;rotatable=0;points=[[0,0.5],[1,0.5]];portConstraint=eastwest;whiteSpace=wrap;html=1;" parent="XGUd7avNZhf5QIV7N5Gn-1" vertex="1">
          <mxGeometry y="26" width="180.01" height="26" as="geometry" />
        </mxCell>
        <mxCell id="XGUd7avNZhf5QIV7N5Gn-5" value="NetworkConfigWrapper" style="swimlane;fontStyle=1;align=center;verticalAlign=top;childLayout=stackLayout;horizontal=1;startSize=26;horizontalStack=0;resizeParent=1;resizeParentMax=0;resizeLast=0;collapsible=1;marginBottom=0;whiteSpace=wrap;html=1;" parent="1" vertex="1">
          <mxGeometry x="350.8681481481482" y="330" width="209.1358024691358" height="138" as="geometry" />
        </mxCell>
        <mxCell id="XGUd7avNZhf5QIV7N5Gn-6" value="+ ini_file: Path" style="text;strokeColor=none;fillColor=none;align=left;verticalAlign=top;spacingLeft=4;spacingRight=4;overflow=hidden;rotatable=0;points=[[0,0.5],[1,0.5]];portConstraint=eastwest;whiteSpace=wrap;html=1;" parent="XGUd7avNZhf5QIV7N5Gn-5" vertex="1">
          <mxGeometry y="26" width="209.1358024691358" height="26" as="geometry" />
        </mxCell>
        <mxCell id="XGUd7avNZhf5QIV7N5Gn-9" value="+ config_data: NetworkConfigData" style="text;strokeColor=none;fillColor=none;align=left;verticalAlign=top;spacingLeft=4;spacingRight=4;overflow=hidden;rotatable=0;points=[[0,0.5],[1,0.5]];portConstraint=eastwest;whiteSpace=wrap;html=1;" parent="XGUd7avNZhf5QIV7N5Gn-5" vertex="1">
          <mxGeometry y="52" width="209.1358024691358" height="26" as="geometry" />
        </mxCell>
        <mxCell id="XGUd7avNZhf5QIV7N5Gn-10" value="+ graph_files: GraphFileCollection" style="text;strokeColor=none;fillColor=none;align=left;verticalAlign=top;spacingLeft=4;spacingRight=4;overflow=hidden;rotatable=0;points=[[0,0.5],[1,0.5]];portConstraint=eastwest;whiteSpace=wrap;html=1;" parent="XGUd7avNZhf5QIV7N5Gn-5" vertex="1">
          <mxGeometry y="78" width="209.1358024691358" height="26" as="geometry" />
        </mxCell>
        <mxCell id="XGUd7avNZhf5QIV7N5Gn-7" value="" style="line;strokeWidth=1;fillColor=none;align=left;verticalAlign=middle;spacingTop=-1;spacingLeft=3;spacingRight=3;rotatable=0;labelPosition=right;points=[];portConstraint=eastwest;strokeColor=inherit;" parent="XGUd7avNZhf5QIV7N5Gn-5" vertex="1">
          <mxGeometry y="104" width="209.1358024691358" height="8" as="geometry" />
        </mxCell>
        <mxCell id="XGUd7avNZhf5QIV7N5Gn-8" value="+ configure()" style="text;strokeColor=none;fillColor=none;align=left;verticalAlign=top;spacingLeft=4;spacingRight=4;overflow=hidden;rotatable=0;points=[[0,0.5],[1,0.5]];portConstraint=eastwest;whiteSpace=wrap;html=1;" parent="XGUd7avNZhf5QIV7N5Gn-5" vertex="1">
          <mxGeometry y="112" width="209.1358024691358" height="26" as="geometry" />
        </mxCell>
        <mxCell id="XGUd7avNZhf5QIV7N5Gn-11" value="NetworkWrapperProtocol" style="swimlane;fontStyle=1;align=center;verticalAlign=top;childLayout=stackLayout;horizontal=1;startSize=26;horizontalStack=0;resizeParent=1;resizeParentMax=0;resizeLast=0;collapsible=1;marginBottom=0;whiteSpace=wrap;html=1;" parent="1" vertex="1">
          <mxGeometry x="33.577283950617264" y="760" width="256.66666666666663" height="52" as="geometry" />
        </mxCell>
        <mxCell id="XGUd7avNZhf5QIV7N5Gn-14" value="+ get_network(): [MultiGraph, GeoDataFrame]" style="text;strokeColor=none;fillColor=none;align=left;verticalAlign=top;spacingLeft=4;spacingRight=4;overflow=hidden;rotatable=0;points=[[0,0.5],[1,0.5]];portConstraint=eastwest;whiteSpace=wrap;html=1;" parent="XGUd7avNZhf5QIV7N5Gn-11" vertex="1">
          <mxGeometry y="26" width="256.66666666666663" height="26" as="geometry" />
        </mxCell>
        <mxCell id="XGUd7avNZhf5QIV7N5Gn-15" value="NetworkConfigDataReader" style="swimlane;fontStyle=1;align=center;verticalAlign=top;childLayout=stackLayout;horizontal=1;startSize=26;horizontalStack=0;resizeParent=1;resizeParentMax=0;resizeLast=0;collapsible=1;marginBottom=0;whiteSpace=wrap;html=1;" parent="1" vertex="1">
          <mxGeometry x="45.43617283950617" y="330" width="209.1358024691358" height="52" as="geometry" />
        </mxCell>
        <mxCell id="XGUd7avNZhf5QIV7N5Gn-18" value="+ read(Path): NetworkConfigData" style="text;strokeColor=none;fillColor=none;align=left;verticalAlign=top;spacingLeft=4;spacingRight=4;overflow=hidden;rotatable=0;points=[[0,0.5],[1,0.5]];portConstraint=eastwest;whiteSpace=wrap;html=1;" parent="XGUd7avNZhf5QIV7N5Gn-15" vertex="1">
          <mxGeometry y="26" width="209.1358024691358" height="26" as="geometry" />
        </mxCell>
        <mxCell id="XGUd7avNZhf5QIV7N5Gn-19" value="NetworkConfigData" style="swimlane;fontStyle=1;align=center;verticalAlign=top;childLayout=stackLayout;horizontal=1;startSize=26;horizontalStack=0;resizeParent=1;resizeParentMax=0;resizeLast=0;collapsible=1;marginBottom=0;whiteSpace=wrap;html=1;" parent="1" vertex="1">
          <mxGeometry x="39.51" y="430" width="285.1851851851852" height="182" as="geometry" />
        </mxCell>
        <mxCell id="XGUd7avNZhf5QIV7N5Gn-22" value="+ project: ProjectSection" style="text;strokeColor=none;fillColor=none;align=left;verticalAlign=top;spacingLeft=4;spacingRight=4;overflow=hidden;rotatable=0;points=[[0,0.5],[1,0.5]];portConstraint=eastwest;whiteSpace=wrap;html=1;" parent="XGUd7avNZhf5QIV7N5Gn-19" vertex="1">
          <mxGeometry y="26" width="285.1851851851852" height="26" as="geometry" />
        </mxCell>
        <mxCell id="XGUd7avNZhf5QIV7N5Gn-23" value="+ network: NetworkSection" style="text;strokeColor=none;fillColor=none;align=left;verticalAlign=top;spacingLeft=4;spacingRight=4;overflow=hidden;rotatable=0;points=[[0,0.5],[1,0.5]];portConstraint=eastwest;whiteSpace=wrap;html=1;" parent="XGUd7avNZhf5QIV7N5Gn-19" vertex="1">
          <mxGeometry y="52" width="285.1851851851852" height="26" as="geometry" />
        </mxCell>
        <mxCell id="XGUd7avNZhf5QIV7N5Gn-21" value="+ origins_destinations: OriginsDestinationsSection" style="text;strokeColor=none;fillColor=none;align=left;verticalAlign=top;spacingLeft=4;spacingRight=4;overflow=hidden;rotatable=0;points=[[0,0.5],[1,0.5]];portConstraint=eastwest;whiteSpace=wrap;html=1;" parent="XGUd7avNZhf5QIV7N5Gn-19" vertex="1">
          <mxGeometry y="78" width="285.1851851851852" height="26" as="geometry" />
        </mxCell>
        <mxCell id="XGUd7avNZhf5QIV7N5Gn-25" value="+ isolation: IsolationSection" style="text;strokeColor=none;fillColor=none;align=left;verticalAlign=top;spacingLeft=4;spacingRight=4;overflow=hidden;rotatable=0;points=[[0,0.5],[1,0.5]];portConstraint=eastwest;whiteSpace=wrap;html=1;" parent="XGUd7avNZhf5QIV7N5Gn-19" vertex="1">
          <mxGeometry y="104" width="285.1851851851852" height="26" as="geometry" />
        </mxCell>
        <mxCell id="XGUd7avNZhf5QIV7N5Gn-20" value="+ hazard: HazardSection" style="text;strokeColor=none;fillColor=none;align=left;verticalAlign=top;spacingLeft=4;spacingRight=4;overflow=hidden;rotatable=0;points=[[0,0.5],[1,0.5]];portConstraint=eastwest;whiteSpace=wrap;html=1;" parent="XGUd7avNZhf5QIV7N5Gn-19" vertex="1">
          <mxGeometry y="130" width="285.1851851851852" height="26" as="geometry" />
        </mxCell>
        <mxCell id="XGUd7avNZhf5QIV7N5Gn-24" value="+ cleanup: CleanupSection" style="text;strokeColor=none;fillColor=none;align=left;verticalAlign=top;spacingLeft=4;spacingRight=4;overflow=hidden;rotatable=0;points=[[0,0.5],[1,0.5]];portConstraint=eastwest;whiteSpace=wrap;html=1;" parent="XGUd7avNZhf5QIV7N5Gn-19" vertex="1">
          <mxGeometry y="156" width="285.1851851851852" height="26" as="geometry" />
        </mxCell>
        <mxCell id="XGUd7avNZhf5QIV7N5Gn-29" value="GraphFilesCollection" style="swimlane;fontStyle=1;align=center;verticalAlign=top;childLayout=stackLayout;horizontal=1;startSize=26;horizontalStack=0;resizeParent=1;resizeParentMax=0;resizeLast=0;collapsible=1;marginBottom=0;whiteSpace=wrap;html=1;" parent="1" vertex="1">
          <mxGeometry x="448.2716049382716" y="490" width="285.1851851851852" height="182" as="geometry" />
        </mxCell>
        <mxCell id="XGUd7avNZhf5QIV7N5Gn-30" value="+ base_graph: GraphFile" style="text;strokeColor=none;fillColor=none;align=left;verticalAlign=top;spacingLeft=4;spacingRight=4;overflow=hidden;rotatable=0;points=[[0,0.5],[1,0.5]];portConstraint=eastwest;whiteSpace=wrap;html=1;" parent="XGUd7avNZhf5QIV7N5Gn-29" vertex="1">
          <mxGeometry y="26" width="285.1851851851852" height="26" as="geometry" />
        </mxCell>
        <mxCell id="XGUd7avNZhf5QIV7N5Gn-31" value="+ base_graph_hazard: GraphFile" style="text;strokeColor=none;fillColor=none;align=left;verticalAlign=top;spacingLeft=4;spacingRight=4;overflow=hidden;rotatable=0;points=[[0,0.5],[1,0.5]];portConstraint=eastwest;whiteSpace=wrap;html=1;" parent="XGUd7avNZhf5QIV7N5Gn-29" vertex="1">
          <mxGeometry y="52" width="285.1851851851852" height="26" as="geometry" />
        </mxCell>
        <mxCell id="XGUd7avNZhf5QIV7N5Gn-32" value="+ origins_destinations_graph: GraphFile" style="text;strokeColor=none;fillColor=none;align=left;verticalAlign=top;spacingLeft=4;spacingRight=4;overflow=hidden;rotatable=0;points=[[0,0.5],[1,0.5]];portConstraint=eastwest;whiteSpace=wrap;html=1;" parent="XGUd7avNZhf5QIV7N5Gn-29" vertex="1">
          <mxGeometry y="78" width="285.1851851851852" height="26" as="geometry" />
        </mxCell>
        <mxCell id="XGUd7avNZhf5QIV7N5Gn-33" value="+ origins_destinations_graph_hazard: GraphFile" style="text;strokeColor=none;fillColor=none;align=left;verticalAlign=top;spacingLeft=4;spacingRight=4;overflow=hidden;rotatable=0;points=[[0,0.5],[1,0.5]];portConstraint=eastwest;whiteSpace=wrap;html=1;" parent="XGUd7avNZhf5QIV7N5Gn-29" vertex="1">
          <mxGeometry y="104" width="285.1851851851852" height="26" as="geometry" />
        </mxCell>
        <mxCell id="XGUd7avNZhf5QIV7N5Gn-34" value="+ base_network: NetworkFile" style="text;strokeColor=none;fillColor=none;align=left;verticalAlign=top;spacingLeft=4;spacingRight=4;overflow=hidden;rotatable=0;points=[[0,0.5],[1,0.5]];portConstraint=eastwest;whiteSpace=wrap;html=1;" parent="XGUd7avNZhf5QIV7N5Gn-29" vertex="1">
          <mxGeometry y="130" width="285.1851851851852" height="26" as="geometry" />
        </mxCell>
        <mxCell id="XGUd7avNZhf5QIV7N5Gn-35" value="+ base_network_hazard: NetworkFile" style="text;strokeColor=none;fillColor=none;align=left;verticalAlign=top;spacingLeft=4;spacingRight=4;overflow=hidden;rotatable=0;points=[[0,0.5],[1,0.5]];portConstraint=eastwest;whiteSpace=wrap;html=1;" parent="XGUd7avNZhf5QIV7N5Gn-29" vertex="1">
          <mxGeometry y="156" width="285.1851851851852" height="26" as="geometry" />
        </mxCell>
        <mxCell id="XGUd7avNZhf5QIV7N5Gn-45" value="NetworkWrapperFactory" style="swimlane;fontStyle=1;align=center;verticalAlign=top;childLayout=stackLayout;horizontal=1;startSize=26;horizontalStack=0;resizeParent=1;resizeParentMax=0;resizeLast=0;collapsible=1;marginBottom=0;whiteSpace=wrap;html=1;" parent="1" vertex="1">
          <mxGeometry x="39.51" y="660" width="270.49" height="52" as="geometry" />
        </mxCell>
        <mxCell id="XGUd7avNZhf5QIV7N5Gn-46" value="+ get_network(): [MultiGraph, GeoDataFrame]" style="text;strokeColor=none;fillColor=none;align=left;verticalAlign=top;spacingLeft=4;spacingRight=4;overflow=hidden;rotatable=0;points=[[0,0.5],[1,0.5]];portConstraint=eastwest;whiteSpace=wrap;html=1;" parent="XGUd7avNZhf5QIV7N5Gn-45" vertex="1">
          <mxGeometry y="26" width="270.49" height="26" as="geometry" />
        </mxCell>
        <mxCell id="XGUd7avNZhf5QIV7N5Gn-57" value="Use" style="endArrow=open;endSize=12;dashed=1;html=1;rounded=0;edgeStyle=elbowEdgeStyle;" parent="1" target="XGUd7avNZhf5QIV7N5Gn-1" edge="1">
          <mxGeometry width="160" relative="1" as="geometry">
            <mxPoint x="388" y="468" as="sourcePoint" />
            <mxPoint x="388" y="870" as="targetPoint" />
          </mxGeometry>
        </mxCell>
        <mxCell id="XGUd7avNZhf5QIV7N5Gn-67" value="&lt;p style=&quot;margin:0px;margin-top:4px;text-align:center;&quot;&gt;&lt;i&gt;&amp;lt;&amp;lt;Interface&amp;gt;&amp;gt;&lt;/i&gt;&lt;br&gt;&lt;b&gt;GraphFileProtocol&lt;/b&gt;&lt;/p&gt;&lt;hr size=&quot;1&quot;&gt;&lt;p style=&quot;margin:0px;margin-left:4px;&quot;&gt;+ read_graph(Path)&lt;br&gt;&lt;/p&gt;&lt;p style=&quot;margin:0px;margin-left:4px;&quot;&gt;+ get_graph(): MultiGraph | GeoDataFrame&lt;br&gt;&lt;/p&gt;" style="verticalAlign=top;align=left;overflow=fill;html=1;whiteSpace=wrap;" parent="1" vertex="1">
          <mxGeometry x="495.79864197530867" y="860" width="237.65432098765433" height="80" as="geometry" />
        </mxCell>
        <mxCell id="XGUd7avNZhf5QIV7N5Gn-36" value="GraphFile" style="swimlane;fontStyle=1;align=center;verticalAlign=top;childLayout=stackLayout;horizontal=1;startSize=26;horizontalStack=0;resizeParent=1;resizeParentMax=0;resizeLast=0;collapsible=1;marginBottom=0;whiteSpace=wrap;html=1;" parent="1" vertex="1">
          <mxGeometry x="480.00246913580247" y="742" width="123.58024691358025" height="52" as="geometry" />
        </mxCell>
        <mxCell id="XGUd7avNZhf5QIV7N5Gn-37" value="+ graph: MultiGraph" style="text;strokeColor=none;fillColor=none;align=left;verticalAlign=top;spacingLeft=4;spacingRight=4;overflow=hidden;rotatable=0;points=[[0,0.5],[1,0.5]];portConstraint=eastwest;whiteSpace=wrap;html=1;" parent="XGUd7avNZhf5QIV7N5Gn-36" vertex="1">
          <mxGeometry y="26" width="123.58024691358025" height="26" as="geometry" />
        </mxCell>
        <mxCell id="XGUd7avNZhf5QIV7N5Gn-38" value="NetworkFile" style="swimlane;fontStyle=1;align=center;verticalAlign=top;childLayout=stackLayout;horizontal=1;startSize=26;horizontalStack=0;resizeParent=1;resizeParentMax=0;resizeLast=0;collapsible=1;marginBottom=0;whiteSpace=wrap;html=1;" parent="1" vertex="1">
          <mxGeometry x="619.9988888888889" y="742" width="142.5925925925926" height="52" as="geometry" />
        </mxCell>
        <mxCell id="XGUd7avNZhf5QIV7N5Gn-39" value="+ graph: GeoDataFrame" style="text;strokeColor=none;fillColor=none;align=left;verticalAlign=top;spacingLeft=4;spacingRight=4;overflow=hidden;rotatable=0;points=[[0,0.5],[1,0.5]];portConstraint=eastwest;whiteSpace=wrap;html=1;" parent="XGUd7avNZhf5QIV7N5Gn-38" vertex="1">
          <mxGeometry y="26" width="142.5925925925926" height="26" as="geometry" />
        </mxCell>
        <mxCell id="g0q4-ersoPOYPyCXIxOk-1" value="1" style="endArrow=open;html=1;endSize=12;startArrow=diamondThin;startSize=14;startFill=1;edgeStyle=orthogonalEdgeStyle;align=left;verticalAlign=bottom;rounded=0;" edge="1" parent="1" source="XGUd7avNZhf5QIV7N5Gn-5" target="XGUd7avNZhf5QIV7N5Gn-19">
          <mxGeometry x="-0.5318" y="1" relative="1" as="geometry">
            <mxPoint x="210" y="530" as="sourcePoint" />
            <mxPoint x="370" y="530" as="targetPoint" />
            <Array as="points">
              <mxPoint x="250" y="399" />
            </Array>
            <mxPoint as="offset" />
          </mxGeometry>
        </mxCell>
        <mxCell id="g0q4-ersoPOYPyCXIxOk-2" value="1" style="endArrow=open;html=1;endSize=12;startArrow=diamondThin;startSize=14;startFill=1;edgeStyle=orthogonalEdgeStyle;align=left;verticalAlign=bottom;rounded=0;" edge="1" parent="1" source="XGUd7avNZhf5QIV7N5Gn-5" target="XGUd7avNZhf5QIV7N5Gn-29">
          <mxGeometry x="-1" y="3" relative="1" as="geometry">
            <mxPoint x="210" y="530" as="sourcePoint" />
            <mxPoint x="370" y="530" as="targetPoint" />
            <Array as="points">
              <mxPoint x="590" y="399" />
              <mxPoint x="590" y="489" />
              <mxPoint x="591" y="489" />
            </Array>
          </mxGeometry>
        </mxCell>
        <mxCell id="g0q4-ersoPOYPyCXIxOk-3" value="1" style="endArrow=open;html=1;endSize=12;startArrow=diamondThin;startSize=14;startFill=1;edgeStyle=orthogonalEdgeStyle;align=left;verticalAlign=bottom;rounded=0;" edge="1" parent="1" source="XGUd7avNZhf5QIV7N5Gn-1" target="XGUd7avNZhf5QIV7N5Gn-29">
          <mxGeometry x="-0.9372" y="-10" relative="1" as="geometry">
            <mxPoint x="210" y="530" as="sourcePoint" />
            <mxPoint x="370" y="530" as="targetPoint" />
            <Array as="points">
              <mxPoint x="420" y="580" />
            </Array>
            <mxPoint as="offset" />
          </mxGeometry>
        </mxCell>
        <mxCell id="g0q4-ersoPOYPyCXIxOk-4" value="1" style="endArrow=open;html=1;endSize=12;startArrow=diamondThin;startSize=14;startFill=1;edgeStyle=orthogonalEdgeStyle;align=left;verticalAlign=bottom;rounded=0;" edge="1" parent="1" source="XGUd7avNZhf5QIV7N5Gn-1" target="XGUd7avNZhf5QIV7N5Gn-19">
          <mxGeometry x="-0.9384" y="-10" relative="1" as="geometry">
            <mxPoint x="210" y="530" as="sourcePoint" />
            <mxPoint x="370" y="530" as="targetPoint" />
            <Array as="points">
              <mxPoint x="350" y="580" />
            </Array>
            <mxPoint as="offset" />
          </mxGeometry>
        </mxCell>
        <mxCell id="g0q4-ersoPOYPyCXIxOk-11" value="" style="group" vertex="1" connectable="0" parent="1">
          <mxGeometry x="30" y="40" width="240" height="200" as="geometry" />
        </mxCell>
        <mxCell id="vteDJC2uOTYHl0jw8V7i-1" value="ra2ce.common.configuration" style="shape=folder;fontStyle=1;spacingTop=10;tabWidth=40;tabHeight=14;tabPosition=left;html=1;whiteSpace=wrap;verticalAlign=top;" parent="g0q4-ersoPOYPyCXIxOk-11" vertex="1">
          <mxGeometry width="240" height="200" as="geometry" />
        </mxCell>
        <mxCell id="XGUd7avNZhf5QIV7N5Gn-66" value="&lt;p style=&quot;margin:0px;margin-top:4px;text-align:center;&quot;&gt;&lt;i&gt;&amp;lt;&amp;lt;Interface&amp;gt;&amp;gt;&lt;/i&gt;&lt;br&gt;&lt;b&gt;ConfigDataReaderProtocol&lt;/b&gt;&lt;/p&gt;&lt;hr size=&quot;1&quot;&gt;&lt;p style=&quot;margin:0px;margin-left:4px;&quot;&gt;+ read(Path): ConfigDataProtocol&lt;br&gt;&lt;/p&gt;" style="verticalAlign=top;align=left;overflow=fill;html=1;whiteSpace=wrap;" parent="g0q4-ersoPOYPyCXIxOk-11" vertex="1">
          <mxGeometry x="19.07" y="40" width="190" height="70" as="geometry" />
        </mxCell>
        <mxCell id="g0q4-ersoPOYPyCXIxOk-5" value="&lt;p style=&quot;margin:0px;margin-top:4px;text-align:center;&quot;&gt;&lt;i&gt;&amp;lt;&amp;lt;Interface&amp;gt;&amp;gt;&lt;/i&gt;&lt;br&gt;&lt;b&gt;ConfigWrapperProtocol&lt;/b&gt;&lt;/p&gt;&lt;hr size=&quot;1&quot;&gt;&lt;p style=&quot;margin:0px;margin-left:4px;&quot;&gt;+ configure()&lt;br&gt;&lt;/p&gt;" style="verticalAlign=top;align=left;overflow=fill;html=1;whiteSpace=wrap;" vertex="1" parent="g0q4-ersoPOYPyCXIxOk-11">
          <mxGeometry x="19.07" y="120" width="190" height="70" as="geometry" />
        </mxCell>
        <mxCell id="g0q4-ersoPOYPyCXIxOk-12" value="" style="group" vertex="1" connectable="0" parent="1">
          <mxGeometry x="400" y="140" width="269.76" height="100" as="geometry" />
        </mxCell>
        <mxCell id="g0q4-ersoPOYPyCXIxOk-6" value="ra2ce.configuration" style="shape=folder;fontStyle=1;spacingTop=10;tabWidth=40;tabHeight=14;tabPosition=left;html=1;whiteSpace=wrap;verticalAlign=top;" vertex="1" parent="g0q4-ersoPOYPyCXIxOk-12">
          <mxGeometry width="269.76" height="100" as="geometry" />
        </mxCell>
        <mxCell id="g0q4-ersoPOYPyCXIxOk-7" value="ConfigFactory" style="swimlane;fontStyle=1;align=center;verticalAlign=top;childLayout=stackLayout;horizontal=1;startSize=26;horizontalStack=0;resizeParent=1;resizeParentMax=0;resizeLast=0;collapsible=1;marginBottom=0;whiteSpace=wrap;html=1;" vertex="1" parent="g0q4-ersoPOYPyCXIxOk-12">
          <mxGeometry x="15.439999999999998" y="40" width="234.32" height="52" as="geometry" />
        </mxCell>
        <mxCell id="g0q4-ersoPOYPyCXIxOk-8" value="+ get_config_wrapper(...): ConfigWrapper" style="text;strokeColor=none;fillColor=none;align=left;verticalAlign=top;spacingLeft=4;spacingRight=4;overflow=hidden;rotatable=0;points=[[0,0.5],[1,0.5]];portConstraint=eastwest;whiteSpace=wrap;html=1;" vertex="1" parent="g0q4-ersoPOYPyCXIxOk-7">
          <mxGeometry y="26" width="234.32" height="26" as="geometry" />
        </mxCell>
        <mxCell id="g0q4-ersoPOYPyCXIxOk-13" value="" style="endArrow=block;dashed=1;endFill=0;endSize=12;html=1;rounded=0;" edge="1" parent="1" source="XGUd7avNZhf5QIV7N5Gn-15" target="vteDJC2uOTYHl0jw8V7i-1">
          <mxGeometry width="160" relative="1" as="geometry">
            <mxPoint x="370" y="230" as="sourcePoint" />
            <mxPoint x="210" y="230" as="targetPoint" />
          </mxGeometry>
        </mxCell>
        <mxCell id="g0q4-ersoPOYPyCXIxOk-14" value="" style="endArrow=block;dashed=1;endFill=0;endSize=12;html=1;rounded=0;edgeStyle=orthogonalEdgeStyle;" edge="1" parent="1" source="XGUd7avNZhf5QIV7N5Gn-5" target="vteDJC2uOTYHl0jw8V7i-1">
          <mxGeometry width="160" relative="1" as="geometry">
            <mxPoint x="155" y="426" as="sourcePoint" />
            <mxPoint x="158" y="250" as="targetPoint" />
            <Array as="points">
              <mxPoint x="456" y="310" />
              <mxPoint x="150" y="310" />
            </Array>
          </mxGeometry>
        </mxCell>
        <mxCell id="g0q4-ersoPOYPyCXIxOk-16" value="return" style="html=1;verticalAlign=bottom;endArrow=open;dashed=1;endSize=8;rounded=0;edgeStyle=elbowEdgeStyle;" edge="1" parent="1" source="XGUd7avNZhf5QIV7N5Gn-15" target="XGUd7avNZhf5QIV7N5Gn-19">
          <mxGeometry relative="1" as="geometry">
            <mxPoint x="330" y="530" as="sourcePoint" />
            <mxPoint x="250" y="530" as="targetPoint" />
          </mxGeometry>
        </mxCell>
        <mxCell id="g0q4-ersoPOYPyCXIxOk-17" value="Use" style="endArrow=open;endSize=12;dashed=1;html=1;rounded=0;edgeStyle=elbowEdgeStyle;" edge="1" parent="1" source="XGUd7avNZhf5QIV7N5Gn-45" target="XGUd7avNZhf5QIV7N5Gn-11">
          <mxGeometry width="160" relative="1" as="geometry">
            <mxPoint x="210" y="530" as="sourcePoint" />
            <mxPoint x="370" y="530" as="targetPoint" />
          </mxGeometry>
        </mxCell>
        <mxCell id="g0q4-ersoPOYPyCXIxOk-18" value="1" style="endArrow=open;html=1;endSize=12;startArrow=diamondThin;startSize=14;startFill=1;edgeStyle=elbowEdgeStyle;align=left;verticalAlign=bottom;rounded=0;" edge="1" parent="1" source="XGUd7avNZhf5QIV7N5Gn-45" target="XGUd7avNZhf5QIV7N5Gn-19">
          <mxGeometry x="-0.5833" y="-5" relative="1" as="geometry">
            <mxPoint x="210" y="530" as="sourcePoint" />
            <mxPoint x="370" y="530" as="targetPoint" />
            <mxPoint as="offset" />
          </mxGeometry>
        </mxCell>
        <mxCell id="g0q4-ersoPOYPyCXIxOk-19" value="Use" style="endArrow=open;endSize=12;dashed=1;html=1;rounded=0;edgeStyle=elbowEdgeStyle;" edge="1" parent="1" source="g0q4-ersoPOYPyCXIxOk-6" target="XGUd7avNZhf5QIV7N5Gn-5">
          <mxGeometry x="0.5556" width="160" relative="1" as="geometry">
            <mxPoint x="210" y="330" as="sourcePoint" />
            <mxPoint x="370" y="330" as="targetPoint" />
            <mxPoint as="offset" />
          </mxGeometry>
        </mxCell>
        <mxCell id="g0q4-ersoPOYPyCXIxOk-24" value="" style="endArrow=open;html=1;endSize=12;startArrow=diamondThin;startSize=14;startFill=0;edgeStyle=orthogonalEdgeStyle;rounded=0;" edge="1" parent="1" source="XGUd7avNZhf5QIV7N5Gn-29" target="XGUd7avNZhf5QIV7N5Gn-36">
          <mxGeometry relative="1" as="geometry">
            <mxPoint x="630" y="830" as="sourcePoint" />
            <mxPoint x="790" y="830" as="targetPoint" />
            <Array as="points">
              <mxPoint x="540" y="720" />
              <mxPoint x="540" y="720" />
            </Array>
          </mxGeometry>
        </mxCell>
        <mxCell id="g0q4-ersoPOYPyCXIxOk-25" value="0..n" style="edgeLabel;resizable=0;html=1;align=left;verticalAlign=top;" connectable="0" vertex="1" parent="g0q4-ersoPOYPyCXIxOk-24">
          <mxGeometry x="-1" relative="1" as="geometry">
            <mxPoint x="10" as="offset" />
          </mxGeometry>
        </mxCell>
        <mxCell id="g0q4-ersoPOYPyCXIxOk-26" value="0..4" style="edgeLabel;resizable=0;html=1;align=right;verticalAlign=top;" connectable="0" vertex="1" parent="g0q4-ersoPOYPyCXIxOk-24">
          <mxGeometry x="1" relative="1" as="geometry">
            <mxPoint x="10" y="-42" as="offset" />
          </mxGeometry>
        </mxCell>
        <mxCell id="g0q4-ersoPOYPyCXIxOk-27" value="" style="endArrow=open;html=1;endSize=12;startArrow=diamondThin;startSize=14;startFill=0;edgeStyle=orthogonalEdgeStyle;rounded=0;" edge="1" parent="1" source="XGUd7avNZhf5QIV7N5Gn-35" target="XGUd7avNZhf5QIV7N5Gn-38">
          <mxGeometry relative="1" as="geometry">
            <mxPoint x="660" y="682" as="sourcePoint" />
            <mxPoint x="660" y="752" as="targetPoint" />
            <Array as="points">
              <mxPoint x="690" y="710" />
              <mxPoint x="690" y="710" />
            </Array>
          </mxGeometry>
        </mxCell>
        <mxCell id="g0q4-ersoPOYPyCXIxOk-28" value="0..n" style="edgeLabel;resizable=0;html=1;align=left;verticalAlign=top;" connectable="0" vertex="1" parent="g0q4-ersoPOYPyCXIxOk-27">
          <mxGeometry x="-1" relative="1" as="geometry">
            <mxPoint x="10" as="offset" />
          </mxGeometry>
        </mxCell>
        <mxCell id="g0q4-ersoPOYPyCXIxOk-29" value="0..2" style="edgeLabel;resizable=0;html=1;align=right;verticalAlign=top;" connectable="0" vertex="1" parent="g0q4-ersoPOYPyCXIxOk-27">
          <mxGeometry x="1" relative="1" as="geometry">
            <mxPoint x="10" y="-42" as="offset" />
          </mxGeometry>
        </mxCell>
        <mxCell id="g0q4-ersoPOYPyCXIxOk-30" value="" style="endArrow=block;dashed=1;endFill=0;endSize=12;html=1;rounded=0;" edge="1" parent="1" source="XGUd7avNZhf5QIV7N5Gn-36" target="XGUd7avNZhf5QIV7N5Gn-67">
          <mxGeometry width="160" relative="1" as="geometry">
            <mxPoint x="280" y="720" as="sourcePoint" />
            <mxPoint x="440" y="720" as="targetPoint" />
            <Array as="points">
              <mxPoint x="542" y="830" />
              <mxPoint x="615" y="830" />
            </Array>
          </mxGeometry>
        </mxCell>
        <mxCell id="g0q4-ersoPOYPyCXIxOk-31" value="" style="endArrow=block;dashed=1;endFill=0;endSize=12;html=1;rounded=0;" edge="1" parent="1" source="XGUd7avNZhf5QIV7N5Gn-38" target="XGUd7avNZhf5QIV7N5Gn-67">
          <mxGeometry width="160" relative="1" as="geometry">
            <mxPoint x="566" y="804" as="sourcePoint" />
            <mxPoint x="603" y="870" as="targetPoint" />
            <Array as="points">
              <mxPoint x="690" y="830" />
              <mxPoint x="615" y="830" />
            </Array>
          </mxGeometry>
        </mxCell>
        <mxCell id="g0q4-ersoPOYPyCXIxOk-38" value="" style="group" vertex="1" connectable="0" parent="1">
          <mxGeometry x="70" y="860" width="170" height="44" as="geometry" />
        </mxCell>
        <mxCell id="g0q4-ersoPOYPyCXIxOk-32" value="OsmNetworkWrapper" style="swimlane;fontStyle=1;align=center;verticalAlign=top;childLayout=stackLayout;horizontal=1;startSize=26;horizontalStack=0;resizeParent=1;resizeParentMax=0;resizeLast=0;collapsible=1;marginBottom=0;whiteSpace=wrap;html=1;" vertex="1" parent="g0q4-ersoPOYPyCXIxOk-38">
          <mxGeometry width="160" height="34" as="geometry" />
        </mxCell>
        <mxCell id="g0q4-ersoPOYPyCXIxOk-34" value="" style="line;strokeWidth=1;fillColor=none;align=left;verticalAlign=middle;spacingTop=-1;spacingLeft=3;spacingRight=3;rotatable=0;labelPosition=right;points=[];portConstraint=eastwest;strokeColor=inherit;" vertex="1" parent="g0q4-ersoPOYPyCXIxOk-32">
          <mxGeometry y="26" width="160" height="8" as="geometry" />
        </mxCell>
        <mxCell id="g0q4-ersoPOYPyCXIxOk-36" value="OsmNetworkWrapper" style="swimlane;fontStyle=1;align=center;verticalAlign=top;childLayout=stackLayout;horizontal=1;startSize=26;horizontalStack=0;resizeParent=1;resizeParentMax=0;resizeLast=0;collapsible=1;marginBottom=0;whiteSpace=wrap;html=1;" vertex="1" parent="g0q4-ersoPOYPyCXIxOk-38">
          <mxGeometry x="10" y="10" width="160" height="34" as="geometry" />
        </mxCell>
        <mxCell id="g0q4-ersoPOYPyCXIxOk-37" value="" style="line;strokeWidth=1;fillColor=none;align=left;verticalAlign=middle;spacingTop=-1;spacingLeft=3;spacingRight=3;rotatable=0;labelPosition=right;points=[];portConstraint=eastwest;strokeColor=inherit;" vertex="1" parent="g0q4-ersoPOYPyCXIxOk-36">
          <mxGeometry y="26" width="160" height="8" as="geometry" />
        </mxCell>
        <mxCell id="g0q4-ersoPOYPyCXIxOk-39" value="" style="endArrow=block;dashed=1;endFill=0;endSize=12;html=1;rounded=0;" edge="1" parent="1" source="g0q4-ersoPOYPyCXIxOk-36" target="XGUd7avNZhf5QIV7N5Gn-11">
          <mxGeometry width="160" relative="1" as="geometry">
            <mxPoint x="300" y="690" as="sourcePoint" />
            <mxPoint x="460" y="690" as="targetPoint" />
          </mxGeometry>
        </mxCell>
      </root>
    </mxGraphModel>
  </diagram>
</mxfile>
